<svg width="123" height="123" viewBox="0 0 123 123" fill="none" xmlns="http://www.w3.org/2000/svg">
<rect width="123" height="123" fill="#F5F5F5"/>
<g clip-path="url(#clip0_0_1)">
<path d="M54.78 0.200002C54.2754 0.323793 53.7593 0.39418 53.24 0.410002C52.7207 0.425823 52.2045 0.49621 51.7 0.620002C51.3154 0.732316 50.9197 0.802725 50.52 0.830002C47.3184 1.41217 44.1659 2.23791 41.09 3.3C40.8662 3.40597 40.6262 3.47358 40.38 3.5C40.3119 3.49404 40.2432 3.50156 40.178 3.52216C40.1128 3.54275 40.0523 3.576 40 3.62C39.8538 3.74899 39.673 3.83241 39.48 3.86C39.2493 3.89901 39.0243 3.96618 38.81 4.06L38 4.39C37.69 4.53 37.25 4.73 37 4.84C36.7939 4.94596 36.5703 5.01372 36.34 5.04C36.18 5.05956 36.0316 5.13373 35.92 5.25C35.8123 5.37151 35.6618 5.44674 35.5 5.46C35.3387 5.47522 35.1889 5.55011 35.08 5.67C34.9668 5.78979 34.814 5.86441 34.65 5.88C34.4787 5.90109 34.3181 5.97442 34.19 6.09C34.073 6.20448 33.9222 6.27813 33.76 6.3C33.7054 6.30128 33.6517 6.31344 33.6019 6.33576C33.5521 6.35808 33.5072 6.39012 33.47 6.43C33.2238 6.63247 32.9513 6.80067 32.66 6.93C32.27 7.13 31.83 7.34 31.72 7.42L30.25 8.28C29.8093 8.52636 29.3911 8.81078 29 9.13C28.9816 9.16408 28.954 9.19239 28.9205 9.21181C28.887 9.23122 28.8487 9.24098 28.81 9.24C27.6458 9.89299 26.5296 10.6282 25.47 11.44C25.3465 11.5823 25.1928 11.695 25.02 11.77C24.4747 12.0732 23.9762 12.4538 23.54 12.9C23.5135 12.9418 23.4765 12.9759 23.4325 12.9987C23.3886 13.0216 23.3394 13.0324 23.29 13.03C23.17 13.03 23.09 13.08 23.09 13.14C22.9237 13.3671 22.7127 13.5576 22.47 13.7C20.9084 14.9103 19.45 16.2482 18.11 17.7C15.03 20.8 14.26 21.63 14.26 21.81C14.2617 21.8502 14.2524 21.8901 14.233 21.9254C14.2136 21.9606 14.1849 21.9899 14.15 22.01C13.9027 22.2309 13.6813 22.4791 13.49 22.75C13.2671 23.0378 13.0231 23.3085 12.76 23.56C12.7129 23.5852 12.6722 23.6208 12.641 23.6641C12.6098 23.7075 12.5889 23.7574 12.58 23.81C12.5577 23.9227 12.5098 24.0288 12.44 24.12C11.8893 24.8022 11.3752 25.5132 10.9 26.25C10.8369 26.3883 10.7488 26.5138 10.64 26.62C10.4577 26.8184 10.303 27.0403 10.18 27.28C10.0192 27.5837 9.83536 27.8745 9.62999 28.15C9.31627 28.5711 9.03544 29.0158 8.78999 29.48C8.70999 29.63 8.52999 29.94 8.36999 30.18C8.2166 30.4118 8.0828 30.656 7.96999 30.91C7.89898 31.0547 7.80435 31.1865 7.68999 31.3C7.63657 31.3429 7.59417 31.398 7.56634 31.4606C7.53851 31.5232 7.52605 31.5916 7.52999 31.66C7.52999 31.8 7.52999 31.93 7.38999 31.93C7.24999 31.93 7.21999 32.08 7.16999 32.28C7.12035 32.4676 7.02402 32.6396 6.88999 32.78C6.82975 32.8305 6.78081 32.8931 6.74635 32.9637C6.7119 33.0343 6.69269 33.1115 6.68999 33.19C6.67478 33.3513 6.59988 33.5011 6.47999 33.61C6.36786 33.7083 6.29358 33.8427 6.26999 33.99C6.24347 34.1449 6.17019 34.288 6.05999 34.4C5.94441 34.5281 5.87108 34.6887 5.84999 34.86C5.83722 35.0248 5.76213 35.1786 5.63999 35.29C5.511 35.4293 5.43645 35.6103 5.42999 35.8C5.42999 35.98 5.36999 36.13 5.28999 36.13C5.20999 36.13 5.10999 36.3 5.05999 36.51C5.00097 36.7493 4.9066 36.9785 4.77999 37.19C4.66546 37.3589 4.59972 37.5561 4.58999 37.76C4.58999 37.93 4.51999 38.1 4.42999 38.12C4.36973 38.1676 4.32125 38.2284 4.2883 38.2978C4.25535 38.3672 4.23882 38.4432 4.23999 38.52C4.18739 38.7883 4.09646 39.0476 3.96999 39.29C3.85803 39.4736 3.78327 39.6775 3.74999 39.89C3.73359 40.037 3.68948 40.1795 3.61999 40.31C2.71992 42.8201 1.99485 45.3896 1.44999 48C1.32999 48.61 1.12999 49.48 1.01999 49.92C0.911744 50.3561 0.844782 50.8014 0.819994 51.25C0.809873 51.5881 0.759518 51.9238 0.669994 52.25C0.531652 52.9092 0.441414 53.5777 0.399994 54.25C0.329994 55.1 0.209994 56.25 0.139994 56.78C-0.051283 59.7769 -0.051283 62.783 0.139994 65.78C0.209994 66.24 0.319994 67.31 0.389994 68.16C0.4305 68.8099 0.524146 69.4554 0.669994 70.09C0.765033 70.415 0.815494 70.7514 0.819994 71.09C0.84079 71.595 0.907736 72.0971 1.01999 72.59C1.12999 73.06 1.32999 73.96 1.44999 74.59C1.94625 76.8384 2.56382 79.0583 3.29999 81.24C3.3924 81.4471 3.45631 81.6657 3.48999 81.89C3.52044 82.1017 3.59177 82.3055 3.69999 82.49C3.80675 82.693 3.87779 82.9129 3.90999 83.14C3.90999 83.28 3.97999 83.39 4.04999 83.39C4.11999 83.39 4.18999 83.57 4.18999 83.79C4.18772 84.0023 4.26231 84.2083 4.39999 84.37C4.55105 84.5543 4.65106 84.7749 4.68999 85.01C4.68999 85.28 4.82999 85.49 4.89999 85.49C4.96999 85.49 5.02999 85.64 5.02999 85.83C5.03613 86.0168 5.11089 86.1948 5.23999 86.33C5.36046 86.4468 5.43498 86.6029 5.44999 86.77C5.47459 86.9402 5.54747 87.0999 5.65999 87.23C5.78116 87.3584 5.8552 87.5241 5.86999 87.7C5.87874 87.8716 5.95408 88.0331 6.07999 88.15C6.19988 88.2589 6.27478 88.4087 6.28999 88.57C6.30071 88.7354 6.37616 88.8899 6.49999 89C6.62264 89.1193 6.69734 89.2794 6.70999 89.45C6.71108 89.5203 6.73117 89.5891 6.76814 89.6489C6.80511 89.7088 6.85758 89.7575 6.91999 89.79C6.98048 89.8248 7.03136 89.8741 7.06802 89.9334C7.10469 89.9928 7.12599 90.0603 7.12999 90.13C7.12719 90.1958 7.13921 90.2615 7.16517 90.3221C7.19113 90.3826 7.23037 90.4366 7.27999 90.48C7.4053 90.586 7.50452 90.7195 7.56999 90.87C7.68704 91.1219 7.82066 91.3658 7.96999 91.6C8.12696 91.8208 8.26416 92.0551 8.37999 92.3C8.51881 92.5651 8.67238 92.8221 8.83999 93.07C9.01999 93.34 9.21999 93.66 9.27999 93.77C9.86852 94.7794 10.5094 95.7574 11.2 96.7C11.2 96.7 11.5 97.14 11.81 97.57C11.9809 97.8765 12.2043 98.1507 12.47 98.38C12.54 98.38 12.6 98.47 12.6 98.55C12.7022 98.8132 12.859 99.0518 13.06 99.25C13.3 99.53 13.61 99.9 13.72 100.07C16.2486 102.912 18.9187 105.626 21.72 108.2C21.8 108.2 21.9 108.29 21.95 108.41C21.9741 108.467 22.0127 108.516 22.0619 108.553C22.111 108.589 22.169 108.613 22.23 108.62C22.2801 108.615 22.3307 108.623 22.3765 108.644C22.4223 108.665 22.4615 108.698 22.49 108.74C24.4644 110.372 26.5421 111.875 28.71 113.24C28.936 113.36 29.1503 113.5 29.35 113.66C29.5772 113.848 29.8387 113.991 30.12 114.08C30.22 114.08 30.31 114.14 30.31 114.19C30.5333 114.406 30.7943 114.578 31.08 114.7C31.3822 114.835 31.6647 115.01 31.92 115.22C32.0196 115.306 32.1489 115.349 32.28 115.34C32.42 115.34 32.55 115.4 32.55 115.46C32.7737 115.663 33.0354 115.819 33.32 115.92C33.6003 116.016 33.8611 116.162 34.09 116.35C34.09 116.42 34.16 116.47 34.25 116.47C35.1694 116.817 36.0676 117.218 36.94 117.67C37.15 117.78 37.37 117.85 37.44 117.81C37.51 117.77 37.64 117.81 37.74 117.94C37.8192 118.05 37.9372 118.125 38.07 118.15C38.7954 118.352 39.5041 118.609 40.19 118.92C42.8118 119.838 45.4826 120.609 48.19 121.23C48.5613 121.284 48.9263 121.375 49.28 121.5C49.6279 121.6 49.9881 121.65 50.35 121.65C50.6295 121.63 50.9093 121.685 51.16 121.81C51.5849 121.955 52.0309 122.03 52.48 122.03C52.9673 122.042 53.4512 122.116 53.92 122.25C56.4335 122.57 58.9666 122.71 61.5 122.67C63.9939 122.713 66.4876 122.57 68.96 122.24C69.3426 122.11 69.7462 122.052 70.15 122.07C70.6371 122.063 71.1212 121.993 71.59 121.86C71.968 121.734 72.362 121.664 72.76 121.65C73.1353 121.637 73.5064 121.566 73.86 121.44C74.1342 121.326 74.4242 121.255 74.72 121.23C75.0799 121.205 75.4357 121.138 75.78 121.03L78.32 120.31C79.9125 119.897 81.4759 119.379 83 118.76C83.1975 118.652 83.4156 118.587 83.64 118.57C83.8263 118.549 84.003 118.476 84.15 118.36C84.319 118.243 84.5152 118.17 84.72 118.15C84.9225 118.133 85.1163 118.06 85.28 117.94C85.4325 117.82 85.6167 117.747 85.81 117.73C85.95 117.73 86.06 117.66 86.06 117.59C86.0599 117.571 86.0639 117.552 86.0715 117.534C86.0792 117.516 86.0904 117.5 86.1045 117.487C86.1185 117.474 86.1352 117.464 86.1533 117.458C86.1715 117.451 86.1908 117.449 86.21 117.45C87.6513 116.874 89.0542 116.206 90.41 115.45C90.633 115.296 90.8669 115.159 91.11 115.04C91.46 114.86 91.93 114.59 92.11 114.45L92.81 114.03C93.0503 113.902 93.284 113.762 93.51 113.61C93.7488 113.454 93.9958 113.31 94.25 113.18C94.42 113.08 94.56 112.95 94.56 112.88C94.565 112.847 94.5822 112.818 94.6082 112.797C94.6342 112.777 94.667 112.767 94.7 112.77C95.6368 112.267 96.527 111.681 97.36 111.02C98.219 110.468 99.0408 109.86 99.82 109.2C100.064 108.969 100.321 108.752 100.59 108.55C102.063 107.37 103.44 106.076 104.71 104.68C108.04 101.35 108.58 100.77 108.58 100.61C108.577 100.57 108.586 100.529 108.605 100.494C108.625 100.458 108.654 100.429 108.69 100.41C109.171 99.9158 109.615 99.3878 110.02 98.83C110.08 98.76 110.54 98.11 111.02 97.42C111.5 96.73 112.11 95.9 112.34 95.57C112.519 95.346 112.664 95.0966 112.77 94.83C112.77 94.7929 112.785 94.7573 112.811 94.731C112.837 94.7047 112.873 94.69 112.91 94.69C112.98 94.69 113.08 94.54 113.14 94.34C113.2 94.14 113.28 93.99 113.35 93.99C113.42 93.99 113.54 93.85 113.61 93.67C113.68 93.49 113.88 93.16 114.03 92.94C114.186 92.708 114.323 92.4639 114.44 92.21C114.509 92.0639 114.603 91.9316 114.72 91.82C114.77 91.7771 114.81 91.7232 114.836 91.6625C114.862 91.6018 114.874 91.5359 114.87 91.47C114.874 91.4003 114.895 91.3328 114.932 91.2734C114.969 91.2141 115.02 91.1648 115.08 91.13C115.145 91.0977 115.199 91.0476 115.236 90.9856C115.273 90.9236 115.292 90.8523 115.29 90.78C115.294 90.709 115.315 90.6401 115.352 90.5792C115.389 90.5182 115.439 90.467 115.5 90.43C115.564 90.3994 115.618 90.3511 115.655 90.2908C115.692 90.2305 115.711 90.1608 115.71 90.09C115.723 89.9194 115.797 89.7593 115.92 89.64C115.982 89.5881 116.032 89.524 116.069 89.4518C116.105 89.3795 116.126 89.3007 116.13 89.22C116.145 89.0587 116.22 88.9089 116.34 88.8C116.452 88.7257 116.531 88.6111 116.56 88.48C116.67 88.114 116.814 87.7591 116.99 87.42C117.44 86.42 117.48 86.42 117.99 85.23C118.16 84.84 118.34 84.4 118.41 84.23C118.81 83.23 120.02 79.62 120.59 77.64C120.72 77.18 120.92 76.52 121.01 76.18C121.12 75.8569 121.188 75.5207 121.21 75.18C121.235 74.8842 121.306 74.5942 121.42 74.32C121.549 73.9533 121.62 73.5686 121.63 73.18C121.634 72.8362 121.706 72.4966 121.84 72.18C121.985 71.7759 122.056 71.3492 122.05 70.92C122.025 70.5788 122.08 70.2364 122.21 69.92C122.385 69.2673 122.479 68.5956 122.49 67.92C122.56 66.92 122.67 65.78 122.74 65.36C122.915 62.5594 122.915 59.7506 122.74 56.95C122.65 56.53 122.56 55.42 122.49 54.5C122.465 53.8261 122.375 53.1563 122.22 52.5C122.092 52.1515 122.034 51.781 122.05 51.41C122.045 50.9719 121.975 50.537 121.84 50.12C121.713 49.7839 121.642 49.4292 121.63 49.07C121.609 48.7282 121.539 48.3913 121.42 48.07C121.309 47.8019 121.238 47.5189 121.21 47.23C121.176 46.8909 121.109 46.556 121.01 46.23C120.9 45.88 120.71 45.23 120.59 44.81C119.771 41.8361 118.738 38.9251 117.5 36.1C117.389 35.9203 117.318 35.7192 117.29 35.51C117.29 35.38 117.23 35.28 117.15 35.28C117.07 35.28 117.01 35.16 117.01 35.02C117.002 34.8462 116.935 34.6803 116.82 34.55C116.68 34.3853 116.581 34.1901 116.53 33.98C116.53 33.77 116.37 33.6 116.3 33.6C116.23 33.6 116.16 33.48 116.16 33.33C116.147 33.1478 116.073 32.9754 115.95 32.84C115.841 32.7353 115.767 32.5988 115.74 32.45C115.729 32.3203 115.676 32.1977 115.59 32.1C115.293 31.7407 115.057 31.3354 114.89 30.9C114.81 30.69 114.68 30.52 114.61 30.52C114.54 30.52 114.48 30.39 114.48 30.24C114.484 30.167 114.469 30.0942 114.435 30.0291C114.402 29.9641 114.352 29.9091 114.29 29.87C114.224 29.841 114.165 29.7984 114.117 29.745C114.069 29.6916 114.032 29.6285 114.01 29.56C113.907 29.3323 113.783 29.1146 113.64 28.91C113.481 28.6692 113.338 28.4187 113.21 28.16C113.11 27.99 112.98 27.85 112.91 27.85C112.84 27.85 112.8 27.77 112.8 27.67C112.542 27.1658 112.238 26.687 111.89 26.24C111.4 25.54 110.89 24.87 110.81 24.73C110.73 24.59 110.31 24.04 110 23.73C109.93 23.6388 109.882 23.5327 109.86 23.42C109.837 23.3181 109.776 23.2286 109.69 23.17C109.414 22.928 109.166 22.6563 108.95 22.36C108.756 22.0917 108.534 21.8438 108.29 21.62C108.255 21.5999 108.226 21.5706 108.207 21.5354C108.188 21.5001 108.178 21.4602 108.18 21.42C108.021 21.1363 107.823 20.877 107.59 20.65C106.31 19.32 102.47 15.52 101.88 15.03C101.56 14.75 100.96 14.23 100.55 13.91L99.46 12.91C99.3274 12.778 99.1757 12.6667 99.01 12.58C98.5964 12.3322 98.1989 12.0583 97.82 11.76C96.26 10.64 95.11 9.87 93.88 9.1C93.29 8.74 92.7 8.36 92.55 8.26C92.4 8.16 92.15 8.05 92 8C91.7584 7.87423 91.5247 7.73398 91.3 7.58C91.07 7.44 90.37 7.05 89.75 6.74L88.42 6C87.57 5.54 87.3 5.43 87.11 5.43C86.92 5.43 86.88 5.37 86.88 5.29C86.88 5.21 86.71 5.11 86.5 5.06C86.3275 5.027 86.1596 4.97328 86 4.9C85.8243 4.8058 85.6356 4.73839 85.44 4.7C85.254 4.66874 85.0807 4.58554 84.94 4.46C84.8068 4.351 84.6419 4.28788 84.47 4.28C84.2788 4.26874 84.0948 4.20279 83.94 4.09C83.8443 3.99191 83.7165 3.93156 83.58 3.92C83.3574 3.88771 83.1414 3.8202 82.94 3.72C82.7057 3.61822 82.4652 3.53138 82.22 3.46L80.92 3C77.206 1.76725 73.3816 0.89653 69.5 0.400002C68.8894 0.34791 68.282 0.264467 67.68 0.150002C63.3822 -0.0634468 59.076 -0.0467563 54.78 0.200002V0.200002Z" fill="white"/>
<path d="M61 45.87C62.1047 46.1304 63.1214 46.6769 63.9481 47.4544C64.7748 48.232 65.3824 49.2134 65.71 50.3C65.87 50.83 65.91 53.23 65.91 64.3C65.91 78.52 65.91 78.3 65.21 79.64C64.6196 80.5866 63.8643 81.4198 62.98 82.1C61.46 82.91 60.51 83.1 57.64 82.97C55.16 82.88 54.64 82.74 53.41 81.79C52.1604 80.8241 51.2812 79.4576 50.92 77.92C50.81 77.46 50.77 73.42 50.77 64.37C50.77 50.37 50.77 50.73 51.54 49.16C52.0238 48.2627 52.7082 47.4893 53.54 46.9C54.75 46.01 55.77 45.75 58.31 45.75C59.2228 45.7319 60.1356 45.7854 61.04 45.91L61 45.87Z" fill="#2BC5B4"/>
<path d="M92.14 45.1C92.68 45.17 93.34 45.29 93.61 45.36L94.94 45.76C97.4716 46.5128 99.8247 47.7699 101.858 49.4558C103.891 51.1417 105.562 53.2215 106.77 55.57C107.04 56.1 107.33 56.72 107.43 56.93C107.537 57.1245 107.601 57.339 107.62 57.56C107.62 57.7054 107.669 57.8464 107.76 57.96C107.899 58.1932 107.991 58.4514 108.03 58.72C108.12 59.07 108.24 59.63 108.33 59.98C108.663 61.1683 108.835 62.396 108.84 63.63C108.9 64.5407 108.869 65.4552 108.75 66.36C108.66 66.89 108.54 67.66 108.47 68.07C108.403 68.4715 108.312 68.8688 108.2 69.26C107.8 70.6755 107.271 72.0513 106.62 73.37C105.005 76.2013 102.765 78.6263 100.07 80.46C98.8934 81.2619 97.6326 81.9325 96.31 82.46C96.0924 82.4947 95.8805 82.5586 95.68 82.65C94.6314 83.0287 93.5502 83.3098 92.45 83.49C90.1035 83.7999 87.7265 83.7999 85.38 83.49C83.306 83.1571 81.3019 82.4812 79.45 81.49C75.8519 79.5082 72.9139 76.5147 71 72.88C70.4892 72.0517 70.1145 71.1469 69.89 70.2C69.879 69.9929 69.8209 69.7911 69.72 69.61C69.5952 69.2863 69.5014 68.9515 69.44 68.61C69.44 68.22 69.28 67.61 69.21 67.28C68.9841 65.1345 69.0075 62.9701 69.28 60.83C69.4676 59.8064 69.7488 58.8022 70.12 57.83C70.2068 57.6417 70.2706 57.4436 70.31 57.24C70.6591 56.2952 71.1013 55.3874 71.63 54.53C71.7715 54.3402 71.8922 54.1357 71.99 53.92C72.3163 53.4341 72.6737 52.9698 73.06 52.53C75.5262 49.3397 78.9283 47.0005 82.79 45.84L84.31 45.41C84.7679 45.2704 85.2417 45.1897 85.72 45.17C86.0879 45.1482 86.4529 45.0913 86.81 45C88.5867 44.8825 90.3704 44.9226 92.14 45.12V45.1Z" fill="#2BC5B4"/>
<path d="M40.94 34.54C42.6017 34.7639 44.1349 35.5552 45.28 36.78C45.8358 37.319 46.2867 37.9565 46.61 38.66L47.01 39.45V53.18C47.01 62.64 47.01 67.23 46.88 67.9C46.7469 69.337 46.4102 70.7478 45.88 72.09C45.7986 72.2115 45.7535 72.3538 45.75 72.5C45.7299 72.7207 45.6652 72.935 45.56 73.13L44.86 74.56C44.4305 75.5182 43.872 76.4131 43.2 77.22C41.3926 79.5815 38.9712 81.4011 36.2 82.48C33.8304 83.3883 31.3176 83.8658 28.78 83.89C23.48 84.19 17.65 82.46 14.72 79.76C11.79 77.06 10.99 74.1 12.38 71.11C12.5208 70.7509 12.7128 70.4141 12.95 70.11C12.9886 70.0927 13.0214 70.0646 13.0445 70.0292C13.0675 69.9937 13.0798 69.9523 13.08 69.91C13.7366 68.8971 14.5011 67.9582 15.36 67.11C16.74 65.78 16.96 65.75 17.79 66.89C19.017 68.3879 20.6379 69.5135 22.47 70.14C23.0588 70.3012 23.6565 70.4281 24.26 70.52C25.0476 70.6898 25.8624 70.6898 26.65 70.52C28.48 70.16 28.89 69.98 29.76 69.14C30.84 68.14 31.13 67.39 31.3 65.37C31.37 64.47 31.45 58.29 31.51 51.62C31.59 37.98 31.51 38.88 32.67 37.4C33.9699 35.8824 35.7736 34.8846 37.75 34.59C38.7727 34.3498 39.8372 34.3498 40.86 34.59L40.94 34.54Z" fill="#2BC5B4"/>
<path d="M61.08 29C61.9191 29.2346 62.711 29.6136 63.42 30.12C64.5221 30.8877 65.3159 32.0217 65.66 33.32C65.9251 34.8687 65.9251 36.4513 65.66 38C65.3539 38.9713 64.8272 39.8585 64.1212 40.5924C63.4151 41.3262 62.5488 41.8867 61.59 42.23C60.99 42.46 60.51 42.5 58.23 42.5H55.56L54.5 42C53.8257 41.7028 53.2173 41.2745 52.71 40.74C52.1398 40.2168 51.6807 39.5843 51.36 38.88C50.9141 37.7973 50.698 36.6338 50.7256 35.4632C50.7531 34.2926 51.0236 33.1405 51.52 32.08C52.1659 31.0559 53.0383 30.1938 54.07 29.56C54.2083 29.555 54.3415 29.5059 54.45 29.42C54.7073 29.257 54.9918 29.1419 55.29 29.08C57.21 28.8245 59.1536 28.7976 61.08 29V29Z" fill="#2BC5B4"/>
<path d="M87.51 56.69C86.7832 56.806 86.0845 57.057 85.45 57.43C85.3569 57.526 85.233 57.5861 85.1 57.6C84.2201 58.2179 83.4495 58.9783 82.82 59.85C82.7461 60.0408 82.6558 60.2248 82.55 60.4C81.641 62.263 81.4077 64.384 81.89 66.4C82.1717 67.6879 82.808 68.8714 83.7269 69.8167C84.6457 70.7621 85.8106 71.4318 87.09 71.75C88.2324 72.0495 89.4306 72.0658 90.5807 71.7974C91.7308 71.529 92.7981 70.9842 93.69 70.21C95.0834 68.9326 95.9618 67.1899 96.16 65.31C96.309 64.4912 96.2886 63.6506 96.1 62.84C95.9095 61.2413 95.1667 59.7594 94 58.65C93.0368 57.5995 91.7537 56.8965 90.35 56.65C89.4309 56.4193 88.4691 56.4193 87.55 56.65L87.51 56.69Z" fill="white"/>
</g>
<defs>
<clipPath id="clip0_0_1">
<rect width="122.88" height="122.67" fill="white"/>
</clipPath>
</defs>
</svg>
